<?xml version="1.0" standalone="no"?>
<!DOCTYPE svg PUBLIC "-//W3C//DTD SVG 20010904//EN"
 "http://www.w3.org/TR/2001/REC-SVG-20010904/DTD/svg10.dtd">
<svg version="1.0" xmlns="http://www.w3.org/2000/svg"
 width="500.000000pt" height="414.000000pt" viewBox="0 0 500.000000 414.000000"
 preserveAspectRatio="xMidYMid meet">
<metadata>
Created by potrace 1.13, written by Peter Selinger 2001-2015
</metadata>
<g transform="translate(0.000000,414.000000) scale(0.100000,-0.100000)"
fill="#000000" stroke="none">
<path d="M358 4127 c22 -26 -75 -97 -134 -97 -14 0 -23 -4 -19 -10 3 -5 12 -7
19 -4 8 3 17 1 21 -5 4 -7 -5 -11 -24 -11 -16 0 -33 -4 -36 -10 -3 -5 -17 -10
-30 -10 -13 0 -26 -4 -29 -8 -3 -5 -26 -7 -51 -5 -36 4 -45 1 -45 -11 0 -9 -7
-16 -15 -16 -13 0 -15 -72 -15 -589 l0 -590 32 4 c18 3 194 6 392 9 l358 5 17
23 c15 22 17 30 20 71 1 13 10 17 41 17 34 0 42 -4 52 -26 9 -20 9 -27 -1 -33
-10 -7 -10 -12 0 -30 18 -28 82 -28 129 0 19 12 90 75 156 142 67 66 129 124
139 130 10 5 30 22 45 37 14 14 55 46 90 70 36 24 67 46 70 50 9 12 234 156
278 178 23 12 49 22 56 22 29 0 28 34 -1 57 -26 22 -27 23 -9 36 11 8 16 19
13 24 -7 11 13 23 38 23 7 0 16 -11 19 -25 4 -14 12 -25 19 -25 7 0 18 -9 25
-20 7 -12 17 -18 22 -15 20 12 222 63 395 99 99 20 301 44 326 38 4 -1 56 -4
115 -7 240 -13 468 -97 662 -242 78 -59 182 -147 182 -154 0 -4 24 -32 54 -61
30 -29 82 -87 115 -128 34 -41 68 -83 76 -92 8 -10 21 -18 30 -18 8 0 20 -10
26 -22 7 -13 20 -29 30 -36 10 -7 16 -19 13 -26 -3 -8 8 -23 26 -36 25 -18 47
-23 113 -24 45 -1 97 2 115 8 25 7 39 6 54 -3 31 -19 61 -23 55 -6 -12 29 51
27 85 -3 10 -8 16 -18 13 -22 -2 -4 7 -12 21 -19 51 -23 107 -6 65 20 -21 14
-18 39 5 39 8 0 14 -9 14 -19 0 -30 22 -37 37 -14 14 21 14 21 68 2 69 -24 93
-24 113 1 16 19 20 19 57 5 42 -15 93 -19 119 -9 14 6 16 70 16 621 0 457 -3
612 -11 607 -18 -11 -183 -6 -187 6 -2 5 -9 10 -15 10 -17 0 -141 53 -148 63
-11 15 -209 20 -259 7 -25 -7 -58 -13 -75 -14 -27 -1 -30 2 -28 29 1 16 10 36
20 42 14 11 1 13 -73 12 -49 -1 -77 -4 -62 -6 49 -8 29 -47 -28 -59 -22 -4
-36 0 -54 15 -24 21 -25 21 -6 36 18 14 12 15 -67 15 l-86 0 24 -26 c29 -31
30 -40 12 -59 -9 -8 -31 -12 -62 -9 -37 3 -58 -2 -84 -17 -24 -14 -46 -19 -67
-16 -18 3 -35 3 -39 -1 -3 -3 -42 -5 -85 -3 -64 2 -81 0 -86 -12 -6 -16 -33
-16 -75 1 -20 8 -31 7 -44 -2 -15 -11 -24 -9 -56 8 -22 12 -39 29 -39 38 0 34
24 67 59 82 34 14 29 15 -114 15 -104 0 -143 -3 -126 -10 22 -9 23 -10 7 -32
-9 -12 -19 -30 -23 -39 -6 -21 -75 -42 -107 -34 -12 3 -35 2 -50 -2 -28 -8
-28 -8 20 -29 27 -12 58 -24 69 -25 35 -5 17 -23 -26 -26 -30 -2 -44 1 -53 14
-12 15 -13 15 -19 0 -8 -20 -33 -21 -41 0 -3 8 -10 12 -16 9 -6 -4 -2 -19 12
-38 17 -24 23 -45 22 -84 0 -37 4 -53 13 -53 7 0 13 -5 13 -11 0 -5 8 -9 18
-7 11 2 20 0 20 -4 4 -20 -11 -66 -28 -88 -18 -23 -19 -24 -38 -7 -10 9 -24
17 -30 17 -17 0 -12 61 6 83 13 15 13 17 0 17 -9 0 -18 -7 -22 -15 -7 -20 -46
-19 -97 1 -33 14 -45 26 -60 61 -17 41 -42 63 -56 49 -3 -3 -5 -39 -4 -80 1
-42 -3 -85 -9 -96 -15 -28 -88 -80 -113 -80 -10 0 -37 18 -59 40 -38 37 -39
42 -33 81 4 23 11 47 16 53 5 6 20 23 33 38 25 28 42 66 33 74 -3 3 -18 -1
-34 -9 -48 -25 -86 -29 -125 -12 -20 8 -42 23 -47 32 -9 16 -12 16 -20 3 -12
-17 -71 -21 -71 -5 0 12 59 37 71 30 9 -6 23 34 15 43 -4 3 -22 0 -40 -6 -18
-7 -41 -10 -49 -6 -9 3 -22 2 -29 -2 -7 -5 -25 -7 -40 -5 -14 1 -29 -2 -32 -8
-5 -7 -13 -7 -27 2 -16 10 -21 9 -29 -3 -5 -8 -10 -10 -10 -5 0 6 -20 11 -45
12 -24 1 -54 7 -65 13 -16 8 -20 8 -18 -2 5 -20 -87 -28 -100 -8 -11 18 -62
25 -62 9 0 -6 7 -9 15 -5 8 3 15 1 15 -3 0 -12 -28 -22 -34 -12 -3 5 -18 6
-33 4 -27 -5 -27 -5 -8 11 19 15 19 17 3 30 -10 7 -18 18 -18 23 0 18 84 78
125 90 31 9 -73 11 -485 11 -289 -1 -513 -3 -499 -5 38 -6 83 -56 74 -82 -4
-13 -11 -18 -18 -14 -8 4 -8 2 1 -9 12 -15 7 -47 -7 -48 -65 -5 -214 -3 -218
3 -2 4 -11 4 -18 0 -13 -8 -159 0 -200 10 -11 3 -24 6 -29 6 -5 1 -4 7 1 14 5
6 15 31 22 53 14 43 11 41 106 69 6 2 -43 4 -109 4 -95 1 -116 -2 -108 -12z"/>
<path d="M2590 3924 c0 -42 -21 -83 -67 -129 -39 -39 -41 -64 -10 -93 33 -31
54 -27 93 14 34 36 43 67 23 80 -8 5 -10 28 -5 73 5 59 4 68 -14 79 -19 11
-20 10 -20 -24z"/>
<path d="M2710 3942 c0 -4 9 -18 20 -32 11 -14 20 -33 20 -42 0 -30 49 -78 79
-78 29 0 81 37 81 57 0 20 -60 63 -88 63 -15 0 -46 9 -69 20 -24 10 -43 16
-43 12z"/>
<path d="M2635 3101 c-25 -11 -80 -20 -148 -25 -115 -7 -174 -21 -147 -35 14
-7 55 -4 210 15 41 5 65 2 95 -10 37 -16 46 -16 135 0 52 9 99 20 104 24 4 5
-10 18 -32 29 -53 27 -159 28 -217 2z"/>
<path d="M2331 2868 c-4 -13 -10 -29 -13 -37 -4 -13 -87 -39 -126 -41 -7 0
-20 16 -28 35 -13 31 -17 34 -35 25 -19 -11 -20 -19 -3 -65 2 -5 -24 -31 -59
-57 -53 -39 -69 -58 -99 -120 -20 -40 -42 -91 -48 -114 -13 -43 -9 -185 4
-216 6 -13 3 -20 -10 -25 -27 -10 -63 -50 -70 -78 -22 -86 51 -172 180 -215
53 -18 69 -36 39 -46 -10 -3 -27 -10 -38 -14 -11 -5 -35 -12 -52 -15 -68 -13
-52 -41 45 -80 37 -15 74 -30 82 -35 9 -4 30 -11 47 -14 49 -11 54 -23 41 -99
-12 -75 -5 -117 36 -197 27 -52 57 -70 164 -95 85 -21 245 -16 323 9 108 34
206 99 303 200 61 64 146 185 172 246 8 19 24 53 35 75 25 52 25 52 -13 71
-31 16 -32 16 -50 -7 -10 -13 -28 -34 -40 -46 -54 -54 -256 -136 -403 -163
-95 -18 -343 -18 -425 -1 -86 18 -216 59 -263 83 -35 18 -42 38 -13 38 15 0
47 16 89 44 25 17 34 18 80 8 29 -6 68 -14 87 -17 19 -3 52 -8 72 -11 20 -4
45 -3 55 1 12 5 -15 14 -82 26 -197 35 -235 45 -320 84 -66 31 -101 62 -119
105 -12 31 -12 39 2 72 30 68 76 61 270 -38 142 -72 291 -127 307 -112 6 6 5
12 -5 18 -12 7 -3 20 42 65 l56 55 32 -50 c38 -60 88 -105 138 -126 40 -16
201 -24 240 -10 35 12 27 29 -10 20 -63 -14 -162 -7 -209 15 -59 28 -131 98
-157 153 -36 78 -55 147 -48 181 18 97 27 134 35 152 5 11 17 38 26 60 21 45
74 99 127 126 50 26 119 49 145 49 27 0 118 -23 158 -41 34 -15 111 -74 137
-104 49 -57 84 -184 75 -274 -5 -56 -35 -141 -49 -141 -5 0 -8 -5 -8 -11 0 -6
7 -9 16 -7 9 2 29 35 46 73 30 72 32 102 13 205 -10 56 -50 143 -77 167 -19
17 -24 68 -8 78 14 8 13 42 -2 51 -6 4 -20 -4 -33 -19 -11 -15 -24 -27 -28
-27 -4 0 -30 11 -59 25 -28 14 -58 25 -66 25 -10 0 -13 11 -10 43 2 36 0 42
-19 45 -16 2 -24 -4 -32 -31 -11 -32 -15 -35 -64 -40 -29 -3 -62 -8 -74 -12
-18 -6 -24 -1 -37 29 -25 60 -69 41 -46 -19 11 -28 8 -32 -40 -78 -42 -39 -54
-46 -66 -36 -8 6 -14 18 -14 25 0 8 -9 19 -20 26 -19 12 -19 13 1 45 11 18 18
37 14 43 -9 15 -41 12 -55 -5 -16 -19 -30 -19 -77 1 -67 29 -68 30 -68 70 0
46 -29 61 -44 22z m113 -118 c56 -28 136 -112 136 -143 0 -11 -11 -43 -24 -71
-34 -74 -48 -204 -31 -284 4 -19 2 -44 -5 -62 -15 -37 -90 -107 -123 -115 -26
-7 -139 40 -257 106 -79 44 -136 69 -160 69 -41 0 -63 136 -39 237 28 114 58
164 140 225 91 70 265 88 363 38z m-96 -1036 l52 -7 0 -74 c0 -50 -4 -75 -12
-78 -7 -3 -47 -2 -88 2 l-75 8 -3 69 c-4 91 0 100 41 92 17 -3 56 -9 85 -12z
m350 -6 c9 -12 -1 -141 -13 -176 -5 -13 -87 -11 -168 5 l-28 5 7 71 c4 40 11
77 16 84 6 7 42 14 86 16 43 1 80 4 83 5 4 1 11 -4 17 -10z m247 -138 c0 -25
-136 -120 -205 -143 -112 -37 -275 -49 -333 -24 l-28 12 41 40 c40 39 43 40
107 38 36 -1 80 -7 98 -13 41 -14 78 0 112 41 15 17 38 35 52 41 74 30 156 34
156 8z"/>
<path d="M2195 2595 c-66 -36 -105 -95 -105 -158 0 -45 35 -110 71 -131 60
-36 166 -20 210 30 26 30 49 85 49 115 0 37 -39 107 -74 132 -38 27 -112 33
-151 12z m118 -31 c35 -17 77 -79 77 -114 0 -33 -30 -88 -59 -109 -42 -30
-127 -29 -162 3 -72 63 -67 149 12 206 47 34 83 38 132 14z"/>
<path d="M2196 2509 c-33 -39 -33 -73 0 -116 20 -26 32 -33 60 -33 49 0 84 37
84 88 0 86 -91 124 -144 61z"/>
<path d="M1552 2618 c1 -24 8 -54 17 -67 22 -35 17 -122 -10 -179 -27 -54 -29
-152 -5 -225 27 -82 27 -99 1 -176 -15 -41 -24 -83 -22 -92 10 -39 -10 -41
-294 -30 -150 6 -276 14 -282 20 -6 6 0 19 15 36 14 15 38 64 53 110 20 61 40
99 71 136 24 28 44 59 44 69 0 27 -46 77 -76 83 -51 9 -112 -29 -133 -86 -23
-60 -52 -41 -146 98 -89 131 -150 199 -204 228 -60 32 -83 29 -108 -14 -12
-21 -25 -29 -44 -29 -33 0 -51 -17 -69 -62 -7 -18 -24 -45 -38 -60 l-24 -26
17 -52 c11 -34 59 -107 142 -218 69 -91 128 -172 131 -180 5 -16 -49 -15 -455
4 l-133 7 0 -631 0 -630 41 -7 c22 -4 75 -2 117 5 79 12 83 12 267 -31 74 -18
179 -28 282 -29 l103 0 2 -172 3 -173 108 -3 107 -3 0 156 0 155 35 0 34 0 3
-152 3 -153 110 0 110 0 3 144 c3 143 3 143 25 136 12 -4 49 -9 82 -11 107 -9
101 -3 108 -95 11 -137 53 -179 186 -187 91 -5 151 9 192 46 26 24 32 38 42
106 l11 78 29 -6 c16 -3 45 -6 63 -6 l34 0 0 -88 c0 -55 5 -95 13 -105 11 -15
45 -17 382 -14 l370 2 6 30 6 30 4 -30 4 -30 105 0 105 0 3 28 3 28 26 -25
c41 -41 82 -48 238 -39 l140 8 6 65 5 65 5 -65 4 -65 108 -3 107 -3 0 51 c0
27 4 50 8 50 5 0 17 -17 26 -37 15 -35 15 -42 1 -88 -20 -67 -19 -75 10 -75
23 0 25 -4 25 -40 0 -22 -4 -40 -10 -40 -5 0 -10 16 -10 36 0 31 -2 35 -15 24
-8 -7 -15 -23 -15 -36 0 -13 -4 -24 -10 -24 -9 0 -14 17 -13 48 1 7 -4 11 -10
9 -8 -2 -35 -82 -37 -109 0 -5 97 -8 214 -8 l215 0 -4 56 c-4 52 -15 90 -15
51 0 -12 -8 -17 -26 -17 -14 0 -23 -4 -20 -9 3 -5 16 -7 28 -3 14 3 19 2 14
-6 -12 -19 -54 -14 -66 8 -11 21 0 55 20 62 8 2 8 17 2 45 l-10 42 46 23 c70
36 86 65 90 162 l4 82 40 23 c22 13 61 39 86 58 26 19 70 46 100 59 29 13 72
36 95 52 108 74 137 92 212 132 44 24 106 67 137 97 32 30 78 63 103 74 l45
20 0 303 0 303 -46 7 c-26 3 -95 6 -153 7 -123 1 -155 7 -142 28 8 12 38 13
175 8 134 -6 166 -4 166 6 0 20 -89 37 -195 37 -52 0 -96 4 -100 9 -3 6 22 38
55 73 74 78 117 157 100 187 -6 12 -15 21 -20 21 -6 0 -10 22 -10 50 0 42 -4
52 -25 66 -14 9 -38 16 -53 16 -15 0 -37 6 -49 14 -31 20 -102 17 -138 -4 -16
-10 -94 -83 -171 -162 -78 -78 -147 -140 -152 -136 -6 3 -18 28 -28 54 -23 63
-56 106 -93 122 -26 10 -35 10 -63 -7 -43 -25 -47 -59 -14 -133 14 -32 26 -74
26 -95 l0 -38 -46 7 c-26 3 -55 6 -64 6 -15 0 -18 13 -22 83 -6 84 8 137 35
137 7 0 13 16 14 40 1 42 -15 55 -24 20 -3 -11 -9 -20 -13 -20 -19 0 -33 -64
-35 -165 -3 -121 -10 -151 -50 -219 -15 -25 -30 -67 -33 -93 l-7 -48 -69 -3
-69 -3 7 28 c28 111 11 241 -37 277 -26 19 -30 19 -55 6 -15 -8 -37 -34 -49
-58 -12 -24 -25 -43 -30 -43 -11 -1 -31 68 -32 109 -1 22 14 57 47 110 l47 77
-2 137 c-1 80 2 140 7 143 6 4 10 13 10 21 0 8 17 38 39 67 41 56 66 118 57
143 -9 22 -23 9 -31 -29 -9 -39 -46 -117 -56 -117 -5 0 -20 -26 -35 -57 -20
-42 -26 -68 -24 -102 11 -134 -4 -212 -55 -287 -37 -55 -45 -94 -32 -169 12
-72 8 -90 -45 -200 -38 -80 -44 -122 -23 -171 10 -24 17 -66 16 -111 0 -59 -4
-79 -25 -115 -59 -100 -66 -118 -66 -168 l0 -50 -37 0 c-55 0 -113 -18 -151
-47 -30 -22 -36 -23 -70 -12 -20 7 -43 20 -50 31 -12 16 -28 18 -137 18 -68 0
-130 -3 -139 -6 -9 -3 -16 -17 -16 -30 0 -36 -44 -33 -62 4 -13 27 -14 27
-130 30 -93 2 -119 0 -131 -12 -13 -14 -16 -14 -27 -1 -8 9 -30 15 -57 15 -24
0 -58 8 -76 17 -38 20 -170 23 -204 5 -37 -20 -147 -15 -198 9 -38 18 -56 20
-104 15 -77 -9 -108 0 -126 35 -18 34 -19 120 -3 166 11 30 9 43 -10 98 -27
79 -28 120 -2 187 32 85 27 190 -15 281 -18 41 -11 161 15 239 21 66 21 70 5
135 -40 161 -40 162 -10 233 38 93 43 166 16 229 -11 27 -21 59 -21 70 0 12
-7 21 -15 21 -11 0 -14 -11 -13 -42z m-970 -110 c32 -23 90 -90 186 -218 39
-52 85 -108 102 -125 l32 -30 24 30 c13 17 24 35 24 41 0 19 69 74 91 74 19 0
69 -44 69 -61 0 -7 -33 -49 -71 -92 -9 -9 -24 -43 -34 -75 -33 -107 -38 -117
-69 -150 l-31 -33 -9 -214 c-4 -118 -5 -226 -2 -240 9 -36 16 -35 310 37 135
33 139 32 150 -39 5 -35 3 -44 -12 -52 -41 -22 -355 -89 -457 -97 -108 -10
-105 -18 -111 277 -3 134 -7 249 -9 255 -2 6 -24 21 -49 34 -41 19 -114 100
-214 235 -4 6 -40 54 -79 106 -40 53 -73 104 -73 112 0 9 -4 19 -10 22 -16 10
-12 52 6 59 29 11 37 6 140 -101 58 -60 103 -101 104 -92 0 19 -124 164 -169
197 -30 22 -39 50 -25 86 17 44 84 -5 189 -138 59 -74 75 -88 75 -64 0 14 -69
106 -127 170 -43 48 -54 83 -31 106 14 14 42 7 80 -20z m4092 -374 c9 -3 16
-10 16 -14 0 -5 -37 -46 -83 -92 -45 -45 -90 -93 -99 -105 -10 -14 -24 -20
-33 -17 -27 11 -16 -13 20 -40 19 -15 42 -40 50 -57 9 -16 20 -29 25 -29 20 0
9 39 -20 70 -16 18 -30 36 -30 40 0 15 143 161 188 192 37 26 48 29 68 19 39
-17 33 -64 -13 -98 -68 -49 -180 -173 -157 -173 4 0 42 34 85 75 62 59 85 75
109 75 25 0 30 -4 30 -23 0 -29 -39 -88 -105 -157 -29 -30 -87 -100 -130 -155
-87 -112 -115 -138 -165 -161 -42 -18 -50 -29 -50 -76 0 -20 -4 -58 -10 -85
-5 -26 -14 -88 -21 -138 -35 -276 -59 -365 -101 -365 -34 0 -73 28 -168 116
-47 44 -106 99 -132 124 -27 24 -48 51 -48 61 0 26 58 71 82 63 11 -3 56 -35
99 -70 76 -61 118 -79 120 -51 0 6 2 21 4 32 7 37 25 316 25 389 0 69 -1 73
-35 106 -42 41 -66 91 -91 190 -10 41 -26 90 -36 108 -32 59 -19 112 26 112
36 -1 63 -32 86 -100 27 -79 40 -95 71 -85 13 4 89 71 169 149 163 158 207
188 254 170z m-4142 -297 c125 -14 165 -34 60 -30 -37 1 -132 4 -212 6 -90 3
-156 9 -175 17 l-30 14 40 7 c48 9 170 3 317 -14z m1038 -199 c13 -46 9 -112
-10 -173 -7 -22 -15 -69 -19 -103 l-6 -64 -70 -25 c-103 -37 -110 -38 -145
-13 -46 33 -38 64 18 68 l42 3 0 52 c0 52 -27 128 -50 142 -7 4 -18 -2 -27
-14 -11 -16 -23 -21 -46 -19 -29 3 -32 6 -35 41 -6 71 17 87 174 121 64 14
103 21 146 25 12 1 21 -11 28 -41z m1960 -84 c10 -29 32 -64 54 -85 32 -32 36
-40 27 -58 -6 -11 -15 -30 -21 -41 -14 -27 -12 -58 6 -109 15 -46 57 -125 78
-151 20 -23 46 -97 46 -128 0 -51 -17 -61 -110 -64 l-85 -3 -3 -42 c-2 -24 -7
-43 -11 -43 -4 0 -26 17 -48 38 -22 21 -55 43 -74 48 -29 8 -34 15 -37 44 -6
54 6 93 48 162 47 79 56 124 40 203 -23 109 -23 128 0 175 42 88 55 109 64
107 5 -2 17 -25 26 -53z m324 -124 c26 -14 90 -60 142 -102 89 -74 94 -80 94
-117 0 -23 -5 -41 -12 -44 -17 -5 -58 22 -58 39 0 7 -4 15 -10 19 -12 7 -78
-20 -103 -43 -23 -21 -57 -85 -57 -108 0 -16 1 -16 18 -1 17 16 21 14 60 -26
23 -24 42 -48 42 -54 0 -15 -55 -33 -101 -33 -32 0 -43 7 -77 45 -60 68 -136
184 -160 244 -38 93 -27 152 36 190 47 28 118 24 186 -9z m-2004 -555 c45 -23
61 -50 67 -114 l6 -61 -77 0 -76 0 0 46 c0 41 -2 45 -22 42 -15 -2 -24 -11
-26 -27 -7 -48 7 -70 73 -112 117 -73 141 -118 133 -244 -6 -100 -54 -139
-173 -139 -123 0 -175 48 -175 162 l0 62 70 0 70 0 0 -49 c0 -57 22 -90 46
-70 15 13 19 86 5 107 -4 7 -41 37 -81 65 -94 67 -110 90 -117 163 -9 106 29
168 114 184 47 9 130 2 163 -15z m196 -26 c42 -40 54 -59 54 -82 0 -30 0 -30
-46 -23 -26 3 -60 6 -75 6 -26 0 -29 3 -29 33 0 18 -9 50 -20 72 -11 22 -20
41 -20 42 0 2 18 3 41 3 35 0 47 -7 95 -51z m1344 22 c55 -25 80 -72 80 -147
l0 -64 -75 0 -75 0 0 49 c0 62 -7 81 -30 81 -26 0 -33 -54 -28 -249 2 -129 6
-164 18 -171 27 -16 40 9 40 76 0 50 -3 64 -15 64 -11 0 -15 12 -15 45 l0 45
90 0 90 0 0 -160 0 -160 -50 0 c-38 0 -50 4 -50 15 0 21 -10 19 -38 -8 -18
-17 -35 -22 -71 -21 -59 1 -103 26 -130 74 -19 35 -21 53 -21 236 0 218 6 246
62 287 51 38 148 41 218 8z m679 0 c59 -29 73 -58 79 -160 l5 -91 -82 0 -81 0
0 85 c0 83 0 85 -24 85 -21 0 -26 -6 -31 -43 -4 -24 -5 -117 -3 -206 2 -126 6
-164 17 -170 31 -19 41 -1 41 75 l0 74 81 0 82 0 -6 -80 c-6 -92 -25 -127 -84
-156 -52 -26 -158 -25 -203 2 -71 41 -75 53 -78 272 -2 126 0 211 8 234 27 92
172 133 279 79z m-3069 -291 l0 -300 -80 0 -80 0 0 300 0 300 80 0 80 0 0
-300z m390 240 l0 -60 -50 0 -50 0 0 -240 0 -240 -75 0 -75 0 0 240 0 240 -50
0 -50 0 0 60 0 60 175 0 175 0 0 -60z m140 3 c0 -32 -3 -75 -6 -95 -6 -36 -9
-38 -44 -38 -46 0 -50 8 -57 113 l-6 77 57 0 56 0 0 -57z m814 40 c2 -10 10
-61 17 -113 18 -142 24 -146 38 -24 20 170 7 154 122 154 l99 0 0 -300 0 -300
-65 0 -65 0 0 192 c0 105 -2 189 -4 187 -3 -2 -14 -76 -26 -164 -30 -234 -23
-215 -79 -215 l-48 0 -23 163 c-13 89 -27 171 -31 182 -4 11 -8 -62 -8 -162
l-1 -183 -65 0 -65 0 0 300 0 300 99 0 c86 0 100 -2 105 -17z m641 -5 c5 -24
85 -559 85 -571 0 -4 -36 -7 -80 -7 l-80 0 0 43 c0 53 -11 70 -41 65 -21 -3
-24 -9 -27 -55 l-3 -53 -80 0 c-69 0 -79 2 -79 18 0 9 16 144 37 300 l37 282
113 0 c109 0 113 -1 118 -22z m725 -278 l0 -300 -80 0 -80 0 0 300 0 300 80 0
80 0 0 -300z"/>
<path d="M2732 2535 c-42 -29 -57 -49 -72 -102 -15 -51 2 -122 38 -159 27 -26
93 -40 147 -30 48 9 112 73 121 121 13 70 -1 117 -47 158 -38 34 -47 37 -98
37 -42 -1 -64 -7 -89 -25z m166 -30 c53 -45 52 -154 -2 -204 -21 -20 -35 -23
-91 -23 -76 1 -97 13 -115 68 -18 55 -3 113 38 151 31 29 43 33 88 33 41 0 59
-5 82 -25z"/>
<path d="M2755 2487 c-38 -32 -45 -101 -16 -138 42 -54 119 -40 147 27 12 29
12 39 0 68 -27 65 -84 84 -131 43z"/>
</g>
</svg>
